HIERARCHY
ROOT Hips
{
	OFFSET 0.000000 0.000000 0.000000
	CHANNELS 6 Xposition Yposition Zposition Zrotation Yrotation Xrotation 
	JOINT LowerBack
	{
		OFFSET 0.000000 0.000000 0.000000
		CHANNELS 3 Zrotation Yrotation Xrotation
		JOINT Spine
		{
			OFFSET 0.028270 2.035590 -0.193380
			CHANNELS 3 Zrotation Yrotation Xrotation
			JOINT Spine1
			{
				OFFSET 0.056720 2.048850 -0.042750
				CHANNELS 3 Zrotation Yrotation Xrotation
				JOINT Neck
				{
					OFFSET 0.000000 0.000000 0.000000
					CHANNELS 3 Zrotation Yrotation Xrotation
					JOINT Neck1
					{
						OFFSET -0.054170 1.746240 0.172020
						CHANNELS 3 Zrotation Yrotation Xrotation
						JOINT Head
						{
							OFFSET 0.104070 1.761360 -0.123970
							CHANNELS 3 Zrotation Yrotation Xrotation
							End Site
							{
								OFFSET 0.000000 0.000000 0.000000
							}
						}
					}
				}
				JOINT LeftShoulder
				{
					OFFSET 0.000000 0.000000 0.000000
					CHANNELS 3 Zrotation Yrotation Xrotation
					JOINT LeftArm
					{
						OFFSET 3.362410 1.200890 -0.311210
						CHANNELS 3 Zrotation Yrotation Xrotation
						JOINT LeftForeArm
						{
							OFFSET 4.983000 -0.000000 -0.000000
							CHANNELS 3 Zrotation Yrotation Xrotation
							JOINT LeftHand
							{
								OFFSET 3.483560 -0.000000 -0.000000
								CHANNELS 3 Zrotation Yrotation Xrotation
								JOINT LeftFingerBase
								{
									OFFSET 0.000000 0.000000 0.000000
									CHANNELS 3 Zrotation Yrotation Xrotation
									JOINT LeftHandIndex1
									{
										OFFSET 0.715260 -0.000000 -0.000000
										CHANNELS 3 Zrotation Yrotation Xrotation
										End Site
										{
											OFFSET 0.000000 0.000000 0.000000
										}
									}
								}
								JOINT LThumb
								{
									OFFSET 0.000000 0.000000 0.000000
									CHANNELS 3 Zrotation Yrotation Xrotation
									End Site
									{
										OFFSET 0.000000 0.000000 0.000000
									}
								}
							}
						}
					}
				}
				JOINT RightShoulder
				{
					OFFSET 0.000000 0.000000 0.000000
					CHANNELS 3 Zrotation Yrotation Xrotation
					JOINT RightArm
					{
						OFFSET -3.136600 1.374050 -0.404650
						CHANNELS 3 Zrotation Yrotation Xrotation
						JOINT RightForeArm
						{
							OFFSET -5.241900 -0.000000 -0.000000
							CHANNELS 3 Zrotation Yrotation Xrotation
							JOINT RightHand
							{
								OFFSET -3.444170 -0.000000 -0.000000
								CHANNELS 3 Zrotation Yrotation Xrotation
								JOINT RightFingerBase
								{
									OFFSET 0.000000 0.000000 0.000000
									CHANNELS 3 Zrotation Yrotation Xrotation
									JOINT RightHandIndex1
									{
										OFFSET -0.622530 -0.000000 -0.000000
										CHANNELS 3 Zrotation Yrotation Xrotation
										End Site
										{
											OFFSET 0.000000 0.000000 0.000000
										}
									}
								}
								JOINT RThumb
								{
									OFFSET 0.000000 0.000000 0.000000
									CHANNELS 3 Zrotation Yrotation Xrotation
									End Site
									{
										OFFSET 0.000000 0.000000 0.000000
									}
								}
							}
						}
					}
				}
			}
		}
	}
}
}
MOTION
Frames: 10
Frame Time: 0.008333
3.297228 17.232320 1.181118 176.701083 -81.027235 -165.836089 1.488065 -2.019789 -3.407882 -0.133148 -2.207917 -3.281384 -6.931450 -1.926074 0.141641 9.415764 -8.848489 -3.955361 -4.481842 -0.374126 0.988832 0.000000 0.000000 0.000000 14.373430 9.068781 -1.188394 -89.377289 -7.471941 24.654116 -178.478959 -49.641700 -179.956317 -4.455851 -6.909449 0.344545 0.403905 1.123380 0.000000 0.000000 0.000000 0.000000 0.000000 0.000000 0.000000 3.279873 -5.175291 -3.600511 89.119584 20.020807 33.729670 -179.634537 51.549694 179.863752 -10.708786 12.230070 -1.294706 0.311102 -1.169891 -0.000000 0.000000 0.000000 0.000000 0.000000 0.000000 0.000000 
3.309490 17.233258 1.165624 174.188012 -82.929542 -163.275231 1.280022 -2.048148 -3.519125 -0.190803 -2.223058 -3.355391 -7.076920 -1.942810 -0.168412 9.328700 -8.644363 -3.419362 -4.481348 -0.378971 1.138176 0.000000 0.000000 0.000000 14.490793 8.009478 -1.235165 -88.276286 -8.205308 24.932831 -178.451313 -50.409033 -179.956413 -4.322958 -6.783198 0.328553 0.386985 1.117320 0.000000 0.000000 0.000000 0.000000 0.000000 0.000000 0.000000 3.157389 -5.153246 -3.525886 88.678370 20.091495 32.727839 -179.498108 51.406263 179.858440 -11.042575 11.937941 -1.303788 0.313858 -1.155932 -0.000000 0.000000 0.000000 0.000000 0.000000 0.000000 0.000000 
3.320679 17.233841 1.151188 169.235884 -84.886712 -158.239909 1.030213 -2.124998 -3.652223 -0.236351 -2.282091 -3.420409 -7.156645 -2.008375 -0.410892 9.223630 -8.458351 -2.953458 -4.474100 -0.382739 1.268275 0.000000 0.000000 0.000000 14.536513 7.100340 -1.264245 -87.339491 -9.016452 25.101883 -178.384542 -50.862400 -179.955930 -4.239555 -6.765074 0.321309 0.373370 1.120719 -0.000000 0.000000 0.000000 0.000000 0.000000 0.000000 0.000000 2.974044 -5.171753 -3.480821 88.179312 20.330469 31.762053 -179.372489 51.252216 179.852588 -11.454760 11.660144 -1.322152 0.321353 -1.143307 -0.000000 0.000000 0.000000 0.000000 0.000000 0.000000 0.000000 
3.330340 17.234190 1.138345 155.419900 -86.979787 -144.306616 0.715236 -2.301250 -3.807403 -0.261092 -2.433236 -3.472842 -7.162128 -2.170383 -0.584938 9.114889 -8.279680 -2.549056 -4.457752 -0.385392 1.381019 0.000000 0.000000 0.000000 14.516826 6.346495 -1.279342 -86.639069 -9.914810 25.204523 -178.278823 -51.053568 -179.955046 -4.174902 -6.846464 0.319848 0.360817 1.133250 -0.000000 0.000000 0.000000 0.000000 0.000000 0.000000 0.000000 2.739813 -5.256406 -3.468770 87.584848 20.754942 30.815662 -179.252871 51.086175 179.846106 -11.944255 11.400656 -1.349415 0.333065 -1.131833 -0.000000 0.000000 0.000000 0.000000 0.000000 0.000000 0.000000 
3.338381 17.234525 1.127429 88.111402 -89.296800 -76.849197 1.199657 -2.540655 -3.976953 -0.159414 -2.717479 -3.515301 -7.112895 -2.448648 -0.700690 9.008516 -8.102332 -2.190403 -4.432936 -0.386771 1.480991 0.000000 0.000000 0.000000 14.426591 5.742433 -1.278425 -86.255028 -10.907163 25.281306 -178.131439 -51.063150 -179.953571 -4.104689 -7.006076 0.321396 0.346926 1.154371 -0.000000 0.000000 0.000000 0.000000 0.000000 0.000000 0.000000 2.461258 -5.414820 -3.500041 86.819693 21.404268 29.873396 -179.134403 50.926829 179.838955 -12.498545 11.148865 -1.382681 0.347211 -1.119769 -0.000000 0.000000 0.000000 0.000000 0.000000 0.000000 0.000000 
3.344600 17.234964 1.120876 18.729038 -88.608747 -7.255430 1.329988 -2.426243 -4.204469 -0.170938 -2.616448 -3.579268 -6.979968 -2.362507 -0.748104 8.872743 -7.909562 -1.920265 -4.396980 -0.386036 1.561648 0.000000 0.000000 0.000000 14.285549 5.573128 -1.310149 -86.217476 -11.893502 25.364599 -178.030339 -50.921844 -179.953460 -4.007868 -7.219117 0.323117 0.337216 1.179086 -0.000000 0.000000 0.000000 0.000000 0.000000 0.000000 0.000000 2.181670 -5.366311 -3.570668 85.871322 22.444585 28.937553 -179.101257 50.847063 179.832746 -13.069059 10.872985 -1.412772 0.368002 -1.108155 -0.000000 0.000000 0.000000 0.000000 0.000000 0.000000 0.000000 
3.351097 17.235589 1.114271 13.217946 -87.044863 -1.580612 0.956595 -2.463810 -4.409036 -0.195477 -2.619586 -3.623756 -6.754228 -2.385221 -0.799561 8.738304 -7.653842 -1.596555 -4.349726 -0.385522 1.651828 0.000000 0.000000 0.000000 14.123821 5.429714 -1.349642 -86.420306 -12.894492 25.480401 -177.938690 -50.714282 -179.953958 -3.884513 -7.450821 0.323026 0.327271 1.204627 0.000000 0.000000 0.000000 0.000000 0.000000 0.000000 0.000000 1.937526 -5.333921 -3.648949 84.734501 23.831054 27.928615 -179.089734 50.930844 179.826981 -13.601907 10.523831 -1.426280 0.386561 -1.093458 -0.000000 0.000000 0.000000 0.000000 0.000000 0.000000 0.000000 
3.357079 17.236563 1.109979 10.631586 -85.541543 1.179488 0.630949 -2.490237 -4.643014 -0.200252 -2.613641 -3.675417 -6.442260 -2.401736 -0.856774 8.564530 -7.293639 -1.227812 -4.283871 -0.384121 1.754345 0.000000 0.000000 0.000000 13.887425 5.400286 -1.393173 -86.888978 -13.925277 25.717447 -177.865213 -50.561483 -179.954815 -3.744358 -7.678491 0.320954 0.317356 1.229690 0.000000 0.000000 0.000000 0.000000 0.000000 0.000000 0.000000 1.683082 -5.192979 -3.758461 83.334456 25.580749 26.747058 -179.096738 51.236555 179.822741 -14.003790 10.054522 -1.406294 0.397296 -1.071878 -0.000000 0.000000 0.000000 0.000000 0.000000 0.000000 0.000000 
3.364492 17.238008 1.107286 9.266241 -84.167429 2.678867 0.305534 -2.494057 -4.856646 -0.193363 -2.580902 -3.736759 -6.029486 -2.395609 -0.970386 8.317248 -6.817291 -0.769525 -4.204299 -0.382679 1.881358 0.000000 0.000000 0.000000 13.580595 5.326392 -1.433372 -87.555409 -14.849457 26.031279 -177.855354 -50.460492 -179.956506 -3.599224 -7.871287 0.316631 0.311211 1.250636 0.000000 0.000000 0.000000 0.000000 0.000000 0.000000 0.000000 1.454612 -4.903019 -3.873829 81.600261 27.774408 25.329192 -179.129828 51.921707 179.820725 -14.223370 9.395300 -1.338823 0.396827 -1.040179 -0.000000 0.000000 0.000000 0.000000 0.000000 0.000000 0.000000 
3.374077 17.239942 1.105938 8.467182 -82.962044 3.573952 -0.009877 -2.460700 -5.047507 -0.174350 -2.507305 -3.813546 -5.516014 -2.351967 -1.166085 7.958617 -6.199888 -0.212839 -4.109561 -0.381351 2.035599 0.000000 0.000000 0.000000 13.182231 5.142742 -1.465658 -88.336709 -15.616716 26.414600 -177.923441 -50.435198 -179.959038 -3.465594 -8.018178 0.311413 0.310356 1.265511 0.000000 0.000000 0.000000 0.000000 0.000000 0.000000 0.000000 1.242194 -4.406931 -3.974148 79.473793 30.405414 23.573833 -179.166090 53.128290 179.821395 -14.219659 8.514440 -1.217963 0.380811 -0.996799 -0.000000 0.000000 0.000000 0.000000 0.000000 0.000000 0.000000 
